<svg xmlns="http://www.w3.org/2000/svg" viewBox="0 0 64 64" role="img" aria-label="GitHub">
  <circle cx="32" cy="32" r="30" fill="#181717"/>
  <path fill="#fff" d="M32 10.6a22 22 0 0 0-7 42.9c1.1.2 1.5-.5 1.5-1v-4c-6.1 1.3-7.4-2.6-7.4-2.6-1-2.5-2.4-3.2-2.4-3.2-2-1.4.1-1.4.1-1.4 2.2.2 3.4 2.3 3.4 2.3 2 3.4 5.2 2.4 6.4 1.8.2-1.4.8-2.4 1.4-3-4.9-.6-10-2.4-10-10.9 0-2.4.9-4.4 2.3-5.9-.2-.6-1-2.8.2-5.8 0 0 1.9-.6 6.1 2.3a21 21 0 0 1 11 0c4.2-2.9 6.1-2.3 6.1-2.3 1.2 3 .4 5.2.2 5.8 1.4 1.5 2.3 3.5 2.3 5.9 0 8.5-5.2 10.3-10.1 10.9.8.7 1.5 2 1.5 4v6c0 .6.4 1.2 1.5 1A22 22 0 0 0 32 10.6Z"/>
</svg>
