<svg xmlns="http://www.w3.org/2000/svg" viewBox="0 0 64 64" role="img" aria-label="TikTok">
  <rect width="64" height="64" rx="12" fill="#050505"/>
  <path fill="#25f4ee" d="M38 8h8c.6 5.7 3.8 10 9.4 12.4v8.1a25.6 25.6 0 0 1-9.5-3.6v18.5c0 9.1-7.2 15.2-16.1 15.2-8.4 0-15.2-6.2-15.2-14.4 0-9.5 8.3-15.4 17.2-14.1v8.5c-4.4-1.4-8.8 1.6-8.8 5.5 0 3.3 2.8 5.9 6.5 5.9 4.2 0 7.5-2.4 7.5-7.2V8Z" opacity=".95"/>
  <path fill="#fe2c55" d="M41 8h8c.6 5.7 3.8 10 9.4 12.4v8.1a25.6 25.6 0 0 1-9.5-3.6v18.5c0 9.1-7.2 15.2-16.1 15.2-8.4 0-15.2-6.2-15.2-14.4 0-9.5 8.3-15.4 17.2-14.1v8.5c-4.4-1.4-8.8 1.6-8.8 5.5 0 3.3 2.8 5.9 6.5 5.9 4.2 0 7.5-2.4 7.5-7.2V8Z" opacity=".95"/>
  <path fill="#fff" d="M39.5 8h7.2c.6 5.7 3.8 10 9.4 12.4v6.2a24.8 24.8 0 0 1-9.4-3.8v20.6c0 9.1-7.2 15.2-16.1 15.2-8.4 0-15.2-6.2-15.2-14.4 0-9.5 8.3-15.4 17.2-14.1v6.4c-4.4-1.4-8.8 1.6-8.8 5.5 0 3.3 2.8 5.9 6.5 5.9 4.2 0 7.5-2.4 7.5-7.2V8Z"/>
</svg>
